<?xml version="1.0" standalone="no"?>
<!DOCTYPE svg PUBLIC "-//W3C//DTD SVG 20010904//EN"
 "http://www.w3.org/TR/2001/REC-SVG-20010904/DTD/svg10.dtd">
<svg version="1.0" xmlns="http://www.w3.org/2000/svg"
 width="512.000000pt" height="512.000000pt" viewBox="0 0 512.000000 512.000000"
 preserveAspectRatio="xMidYMid meet">
<metadata>
Created by potrace 1.14, written by Peter Selinger 2001-2017
</metadata>
<g transform="translate(0.000000,512.000000) scale(0.100000,-0.100000)"
fill="#000000" stroke="none">
<path d="M2378 5115 c-1 -1 -39 -5 -82 -9 -44 -4 -82 -8 -85 -10 -3 -2 -31 -7
-61 -11 -30 -4 -86 -13 -125 -22 -38 -8 -81 -17 -94 -19 -59 -12 -325 -106
-418 -148 -581 -262 -1046 -732 -1303 -1315 -67 -154 -138 -380 -165 -526 -11
-63 -25 -156 -33 -212 -9 -76 -8 -481 2 -558 4 -33 10 -75 12 -94 6 -46 19
-118 38 -208 15 -70 60 -220 91 -303 197 -526 544 -960 1010 -1266 305 -199
632 -323 1025 -388 165 -27 574 -28 720 -2 14 3 41 7 60 10 19 3 60 10 90 16
30 6 66 13 80 16 45 8 232 65 309 94 462 174 861 472 1159 866 219 289 400
693 457 1016 3 17 8 34 10 37 5 10 19 102 32 226 14 134 8 472 -12 595 -2 14
-6 41 -9 60 -90 611 -442 1215 -931 1601 -79 63 -261 189 -271 189 -4 0 -15 6
-23 14 -28 25 -293 153 -392 190 -119 44 -287 93 -382 111 -118 23 -130 25
-177 31 -25 3 -56 8 -70 10 -27 6 -456 14 -462 9z"/>
</g>
</svg>
